<?xml version="1.0" encoding="utf-8"?>
<!-- Generator: Adobe Illustrator 16.0.3, SVG Export Plug-In . SVG Version: 6.00 Build 0)  -->
<!DOCTYPE svg PUBLIC "-//W3C//DTD SVG 1.1//EN" "http://www.w3.org/Graphics/SVG/1.1/DTD/svg11.dtd">
<svg version="1.1" id="Layer_1" xmlns="http://www.w3.org/2000/svg" xmlns:xlink="http://www.w3.org/1999/xlink" x="0px" y="0px"
	 width="160px" height="48px" viewBox="0 0 160 48" enable-background="new 0 0 160 48" xml:space="preserve">
<g>
	<path fill="#FFFFFF" d="M46,2v44H2V2H46 M48,0H0v48h48V0L48,0z"/>
</g>
<g>
	<path fill="#FFFFFF" d="M68.409,27.351c0.888,0.198,1.578,0.298,2.069,0.298c0.909,0,1.562-0.277,1.959-0.83
		c0.397-0.555,0.595-1.505,0.595-2.853V4.876h5.611v18.603c0,2.811-0.614,4.929-1.841,6.355c-1.228,1.427-3.059,2.14-5.493,2.14
		c-1.045,0-2.011-0.1-2.899-0.299V27.351z"/>
	<path fill="#FFFFFF" d="M97.01,25.502h-3.809l-1.065-2.116h-0.11c-0.721,0.909-1.476,1.536-2.265,1.881
		c-0.789,0.345-1.789,0.517-3.001,0.517c-1.515,0-2.701-0.454-3.558-1.363c-0.856-0.909-1.285-2.173-1.285-3.792
		c0-3.281,2.304-5.015,6.911-5.203l2.68-0.094v-0.219c0-1.317-0.653-1.975-1.959-1.975c-1.149,0-2.628,0.392-4.436,1.176
		l-1.599-3.636c1.87-0.961,4.221-1.442,7.053-1.442c2.048,0,3.633,0.512,4.757,1.536c1.123,1.024,1.685,2.439,1.685,4.247V25.502z
		 M87.544,20.424c0,0.982,0.522,1.473,1.567,1.473c0.668,0,1.238-0.209,1.708-0.627s0.705-0.972,0.705-1.661v-1.238l-1.27,0.047
		C88.448,18.501,87.544,19.17,87.544,20.424z"/>
	<path fill="#FFFFFF" d="M125.895,25.502h-5.518v-8.683c0-1.107-0.146-1.925-0.438-2.453c-0.293-0.527-0.764-0.792-1.412-0.792
		c-0.846,0-1.465,0.36-1.855,1.082c-0.393,0.721-0.588,1.854-0.588,3.401v7.445h-5.533v-8.683c0-1.097-0.144-1.912-0.431-2.445
		c-0.288-0.533-0.739-0.799-1.356-0.799c-0.877,0-1.512,0.387-1.904,1.16c-0.392,0.773-0.588,2.032-0.588,3.777v6.99h-5.517V9.516
		h4.169l0.689,1.975h0.329c0.407-0.721,1.013-1.277,1.818-1.669c0.805-0.392,1.724-0.588,2.759-0.588c2.309,0,3.927,0.7,4.859,2.1
		h0.438c0.449-0.658,1.076-1.173,1.881-1.543c0.805-0.371,1.693-0.557,2.664-0.557c1.871,0,3.26,0.483,4.17,1.45
		c0.908,0.967,1.363,2.442,1.363,4.428V25.502z"/>
	<path fill="#FFFFFF" d="M137.367,25.783c-2.664,0-4.734-0.705-6.207-2.115c-1.473-1.432-2.209-3.474-2.209-6.128
		s0.678-4.702,2.037-6.144c1.357-1.442,3.275-2.163,5.752-2.163s4.369,0.632,5.68,1.896c1.313,1.264,1.969,3.072,1.969,5.423v2.445
		h-9.859c0.031,0.898,0.355,1.601,0.973,2.108c0.615,0.507,1.428,0.76,2.438,0.76c1.008,0,1.924-0.091,2.75-0.274
		c0.824-0.183,1.707-0.499,2.648-0.948v3.965c-0.836,0.439-1.717,0.745-2.641,0.917C139.771,25.697,138.662,25.783,137.367,25.783z
		 M138.73,13.685c-0.418-0.46-0.975-0.689-1.67-0.689s-1.254,0.211-1.676,0.634c-0.424,0.423-0.672,1.058-0.746,1.904h4.734
		C139.361,14.761,139.148,14.145,138.73,13.685z"/>
	<path fill="#FFFFFF" d="M158.227,16.866c1.076,0.846,1.613,2.105,1.613,3.777c0,1.672-0.576,2.946-1.73,3.824
		c-1.156,0.877-2.836,1.316-5.039,1.316c-1.182,0-2.211-0.063-3.088-0.188s-1.771-0.361-2.68-0.706v-4.404
		c0.898,0.397,1.852,0.71,2.859,0.94c1.01,0.23,1.904,0.345,2.688,0.345c1.191,0,1.787-0.271,1.787-0.815
		c0-0.282-0.162-0.53-0.486-0.745c-0.322-0.214-1.301-0.645-2.93-1.293c-1.484-0.627-2.514-1.319-3.088-2.077
		c-0.574-0.757-0.861-1.721-0.861-2.892c0-1.473,0.574-2.627,1.725-3.463c1.148-0.836,2.713-1.254,4.693-1.254
		c1.979,0,3.988,0.455,6.025,1.364l-1.504,3.558c-0.742-0.334-1.514-0.617-2.313-0.847c-0.799-0.229-1.471-0.345-2.014-0.345
		c-0.898,0-1.348,0.22-1.348,0.658c0,0.272,0.156,0.504,0.471,0.698c0.313,0.193,1.223,0.587,2.727,1.183
		C156.852,15.962,157.684,16.417,158.227,16.866z"/>
</g>
<g>
	<path fill="#FFFFFF" d="M85.768,42h-3.79V28.029h3.79v6.072c0.212-0.418,0.598-1.016,1.157-1.795l2.941-4.277h4.119l-4.396,6.264
		L93.911,42h-4.257l-2.76-5.34l-1.125,0.669V42z"/>
	<path fill="#FFFFFF" d="M100.429,42.191c-1.805,0-3.206-0.478-4.204-1.434c-0.998-0.969-1.497-2.353-1.497-4.15
		s0.46-3.186,1.38-4.162c0.92-0.977,2.219-1.465,3.896-1.465c1.677,0,2.96,0.428,3.848,1.285c0.888,0.855,1.333,2.08,1.333,3.673
		v1.656h-6.678c0.021,0.608,0.24,1.085,0.658,1.428c0.417,0.343,0.968,0.515,1.651,0.515s1.304-0.062,1.863-0.186
		c0.559-0.123,1.157-0.338,1.794-0.643v2.687c-0.566,0.297-1.162,0.504-1.789,0.621C102.059,42.133,101.307,42.191,100.429,42.191z
		 M101.353,33.996c-0.283-0.313-0.66-0.468-1.131-0.468s-0.849,0.144-1.136,0.431c-0.287,0.286-0.455,0.716-0.504,1.289h3.206
		C101.781,34.725,101.636,34.307,101.353,33.996z"/>
	<path fill="#FFFFFF" d="M111.194,28.485c0,1.09-0.664,1.635-1.99,1.635c-1.327,0-1.991-0.545-1.991-1.635
		c0-0.573,0.157-0.994,0.472-1.263c0.315-0.27,0.818-0.404,1.508-0.404s1.196,0.139,1.518,0.414
		C111.033,27.509,111.194,27.926,111.194,28.485z M111.045,31.172V42h-3.737V31.172H111.045z"/>
	<path fill="#FFFFFF" d="M117.946,38.189c0,0.7,0.336,1.051,1.009,1.051c0.495,0,1.097-0.124,1.805-0.371v2.717
		c-0.46,0.206-0.926,0.357-1.396,0.457s-1.018,0.148-1.641,0.148c-1.238,0-2.139-0.305-2.701-0.913s-0.844-1.557-0.844-2.845v-4.459
		h-1.306v-1.519l1.656-1.179l0.967-2.271h2.452v2.166h2.654v2.803h-2.654V38.189z"/>
	<path fill="#FFFFFF" d="M133.225,42h-3.759v-5.902c0-1.451-0.429-2.177-1.284-2.177c-0.623,0-1.078,0.261-1.364,0.78
		c-0.287,0.521-0.431,1.368-0.431,2.543V42h-3.737V27.137h3.737v2.113c0,0.906-0.05,1.992-0.148,3.26h0.17
		c0.354-0.545,0.771-0.937,1.253-1.174s1.058-0.355,1.73-0.355c1.217,0,2.16,0.349,2.829,1.045c0.669,0.697,1.004,1.676,1.004,2.936
		V42z"/>
</g>
<g>
	<path fill="#FFFFFF" d="M140.174,41.09c0,0.332-0.1,0.59-0.3,0.773c-0.2,0.185-0.479,0.276-0.834,0.276
		c-0.356,0-0.638-0.092-0.844-0.276c-0.206-0.184-0.31-0.442-0.31-0.776s0.101-0.591,0.301-0.771s0.484-0.27,0.853-0.27
		s0.648,0.091,0.843,0.272C140.077,40.502,140.174,40.759,140.174,41.09z"/>
	<path fill="#FFFFFF" d="M147.43,42h-2.136v-3.373c0-0.829-0.248-1.244-0.746-1.244c-0.355,0-0.615,0.143-0.779,0.428
		s-0.246,0.78-0.246,1.483V42h-2.135v-6.188h1.613l0.268,0.765h0.127c0.364-0.582,0.986-0.873,1.868-0.873
		c0.684,0,1.216,0.199,1.596,0.598c0.38,0.397,0.57,0.957,0.57,1.677V42z"/>
	<path fill="#FFFFFF" d="M151.87,42.109c-1.031,0-1.832-0.273-2.402-0.819c-0.57-0.554-0.855-1.345-0.855-2.372
		s0.264-1.82,0.789-2.378c0.525-0.559,1.268-0.837,2.227-0.837c0.958,0,1.691,0.244,2.199,0.733s0.762,1.189,0.762,2.1v0.946h-3.816
		c0.012,0.348,0.138,0.62,0.376,0.815c0.238,0.196,0.553,0.295,0.943,0.295s0.745-0.035,1.064-0.106
		c0.32-0.07,0.662-0.193,1.025-0.367v1.535c-0.323,0.17-0.664,0.288-1.022,0.354C152.802,42.076,152.372,42.109,151.87,42.109z
		 M152.398,37.426c-0.162-0.178-0.377-0.267-0.646-0.267c-0.269,0-0.485,0.081-0.648,0.245c-0.164,0.164-0.261,0.409-0.289,0.737
		h1.833C152.643,37.843,152.56,37.604,152.398,37.426z"/>
	<path fill="#FFFFFF" d="M158.247,39.822c0,0.4,0.191,0.601,0.576,0.601c0.283,0,0.627-0.071,1.031-0.213v1.554
		c-0.263,0.117-0.529,0.204-0.798,0.261s-0.581,0.085-0.938,0.085c-0.708,0-1.223-0.174-1.544-0.521
		c-0.321-0.349-0.482-0.891-0.482-1.626v-2.549h-0.746v-0.867l0.946-0.673l0.553-1.299h1.401v1.237h1.517v1.602h-1.517V39.822z"/>
</g>
<path fill="#FFFFFF" d="M35.469,17h-5.107l-4.135,4.758C25.942,22.152,25,21.954,25,22.275V8h-6v22.012
	c0,1.609-0.099,2.743-0.572,3.405c-0.475,0.663-1.562,0.992-2.648,0.992c-0.586,0-1.779-0.117-2.779-0.355v5.165
	c1,0.237,2.594,0.357,3.84,0.357c2.907,0,4.793-0.852,6.26-2.557C24.566,35.317,25,32.789,25,29.433v-2.416l1.188-0.025L30.099,34
	h5.278l-5.356-9.396L35.469,17z"/>
</svg>
